<svg width="24" height="24" viewBox="0 0 24 24" fill="none" xmlns="http://www.w3.org/2000/svg">
<rect x="4" y="15" width="15" height="6" fill="url(#paint0_linear)"/>
<rect y="15" width="4" height="6" fill="url(#paint1_radial)"/>
<rect width="4" height="6" transform="matrix(-1 0 0 1 23 15)" fill="url(#paint2_radial)"/>
<path d="M11.5 7.5C5.97715 7.5 2 12.5 1.5 18.5H21.5C21 12.5 17.0228 7.5 11.5 7.5Z" fill="url(#paint3_linear)"/>
<path d="M1.50922 18.5C1.7377 12.3218 6.18046 7.5 11.5 7.5C16.8195 7.5 21.2623 12.3218 21.4908 18.5H1.50922Z" stroke="black" stroke-opacity="0.5"/>
<path d="M20.4127 17.5H2.58726C3.50792 12.3896 6.7796 8.5 11.5 8.5C16.2204 8.5 19.4921 12.3896 20.4127 17.5Z" stroke="url(#paint4_linear)" stroke-opacity="0.5"/>
<path d="M10 8H13V10.5C13 11.3284 12.3284 12 11.5 12V12C10.6716 12 10 11.3284 10 10.5V8Z" fill="black" fill-opacity="0.1"/>
<path d="M11 8H12V10.4999C12 10.7761 11.7761 10.9999 11.5 10.9999V10.9999C11.2239 10.9999 11 10.7761 11 10.4999V8Z" fill="white"/>
<path d="M17.4629 10.2297L19.3425 12.5678L18.1753 13.5098C17.5306 14.0301 16.5872 13.9284 16.0682 13.2828V13.2828C15.5491 12.6371 15.651 11.6919 16.2956 11.1717L17.4629 10.2297Z" fill="black" fill-opacity="0.1"/>
<path d="M18.0532 11.0322L18.6798 11.8116L17.5125 12.7536C17.2976 12.927 16.9831 12.8931 16.8101 12.6779V12.6779C16.6371 12.4627 16.671 12.1476 16.8859 11.9742L18.0532 11.0322Z" fill="white"/>
<path d="M5.49054 10.2903L3.67071 12.676L4.86247 13.5878C5.52054 14.0912 6.46139 13.9653 6.96392 13.3065V13.3065C7.46645 12.6477 7.34036 11.7056 6.68229 11.2021L5.49054 10.2903Z" fill="black" fill-opacity="0.1"/>
<path d="M4.92075 11.1077L4.31414 11.9029L5.50586 12.8147C5.72521 12.9825 6.03883 12.9405 6.20634 12.7209V12.7209C6.37385 12.5013 6.33182 12.1873 6.11247 12.0194L4.92075 11.1077Z" fill="white"/>
<circle cx="12" cy="18.0036" r="3" stroke="black" stroke-opacity="0.07" stroke-width="2"/>
<circle cx="12" cy="18.0036" r="2.5" stroke="black" stroke-opacity="0.15"/>
<path d="M11.2428 15.9514L10.7522 16.2457L11.1096 16.6925L13.1096 19.1925L13.5791 19.7793L13.939 19.1195L16.9389 13.6195L16.2427 12.9514L11.2428 15.9514Z" stroke="black" stroke-opacity="0.15" stroke-miterlimit="2.3662"/>
<path d="M12.7191 19.5048L13.6581 20.6785L14.3779 19.359L17.3779 13.859L15.9855 12.5226L10.9855 15.5226L10.0043 16.1113L10.7191 17.0048L12.7191 19.5048Z" stroke="black" stroke-opacity="0.07" stroke-width="2" stroke-miterlimit="2.3662"/>
<path d="M13.25 19.2536L10.75 16.7536L16.5 13.3801L13.25 19.2536Z" fill="url(#paint5_linear)"/>
<path d="M13.134 18.4305L11.561 16.8575L15.1789 14.7349L13.134 18.4305Z" stroke="url(#paint6_linear)" stroke-miterlimit="16"/>
<circle cx="11.9999" cy="18.0041" r="2" fill="url(#paint7_linear)"/>
<circle cx="12" cy="18" r="1.5" stroke="url(#paint8_linear)"/>
<defs>
<linearGradient id="paint0_linear" x1="11.5" y1="15" x2="11.5" y2="21" gradientUnits="userSpaceOnUse">
<stop stop-opacity="0"/>
<stop offset="0.491713" stop-opacity="0.6"/>
<stop offset="1" stop-opacity="0"/>
</linearGradient>
<radialGradient id="paint1_radial" cx="0" cy="0" r="1" gradientUnits="userSpaceOnUse" gradientTransform="translate(4 18) rotate(-180) scale(4 3)">
<stop stop-opacity="0.6"/>
<stop offset="1" stop-opacity="0"/>
</radialGradient>
<radialGradient id="paint2_radial" cx="0" cy="0" r="1" gradientUnits="userSpaceOnUse" gradientTransform="translate(4 3) rotate(-180) scale(4 3)">
<stop stop-opacity="0.6"/>
<stop offset="1" stop-opacity="0"/>
</radialGradient>
<linearGradient id="paint3_linear" x1="11.5" y1="7.5" x2="11.5" y2="18.5" gradientUnits="userSpaceOnUse">
<stop stop-color="#667885"/>
<stop offset="1" stop-color="#485A6C"/>
</linearGradient>
<linearGradient id="paint4_linear" x1="11.5" y1="8" x2="11.5" y2="18" gradientUnits="userSpaceOnUse">
<stop stop-color="white" stop-opacity="0.26"/>
<stop offset="1" stop-color="white" stop-opacity="0.17"/>
</linearGradient>
<linearGradient id="paint5_linear" x1="15.1973" y1="15.2228" x2="12.4996" y2="17.504" gradientUnits="userSpaceOnUse">
<stop stop-color="#F37329"/>
<stop offset="1" stop-color="#CC3B02"/>
</linearGradient>
<linearGradient id="paint6_linear" x1="15.1973" y1="15.2227" x2="11.9134" y2="18.1121" gradientUnits="userSpaceOnUse">
<stop stop-color="white" stop-opacity="0.48"/>
<stop offset="1" stop-color="white" stop-opacity="0.03"/>
</linearGradient>
<linearGradient id="paint7_linear" x1="11.9999" y1="16.0041" x2="11.9999" y2="24.5041" gradientUnits="userSpaceOnUse">
<stop stop-color="#A10705"/>
<stop offset="1" stop-color="#7A0000"/>
</linearGradient>
<linearGradient id="paint8_linear" x1="12" y1="16" x2="12" y2="20" gradientUnits="userSpaceOnUse">
<stop stop-color="white" stop-opacity="0.41"/>
<stop offset="1" stop-color="white" stop-opacity="0.19"/>
</linearGradient>
</defs>
</svg>
