<svg width="64" height="64" viewBox="0 0 64 64" fill="none" xmlns="http://www.w3.org/2000/svg">
<rect x="9" y="49" width="46" height="8" fill="url(#paint0_linear)"/>
<rect x="1" y="49" width="8" height="8" fill="url(#paint1_radial)"/>
<rect width="8" height="8" transform="matrix(-1 0 0 1 63 49)" fill="url(#paint2_radial)"/>
<path d="M32 24.5C16.8122 24.5 4.5 37.4837 4.5 53.5H59.5C59.5 37.4837 47.1878 24.5 32 24.5Z" fill="url(#paint3_linear)"/>
<path d="M59.4961 53.5H4.50386C4.75284 37.4064 16.9991 24.5 32 24.5C47.0009 24.5 59.2472 37.4064 59.4961 53.5Z" stroke="black" stroke-opacity="0.5"/>
<path d="M5.52725 52.5C6.44616 37.4649 17.5668 25.5 32 25.5C46.4332 25.5 57.5538 37.4649 58.4727 52.5H5.52725Z" stroke="url(#paint4_linear)"/>
<path d="M30 25H33V29.5C33 30.3284 32.3284 31 31.5 31C30.6716 31 30 30.3284 30 29.5V25Z" fill="black" fill-opacity="0.1"/>
<path d="M31 25H32V29.5C32 29.7761 31.7761 30 31.5 30C31.2239 30 31 29.7761 31 29.5V25Z" fill="white"/>
<path d="M51.7075 34.0813L53.5394 36.4571L49.9757 39.2049C49.3197 39.7108 48.3778 39.589 47.8719 38.933C47.366 38.2769 47.4878 37.335 48.1438 36.8291L51.7075 34.0813Z" fill="black" fill-opacity="0.1"/>
<path d="M52.3181 34.8733L52.9287 35.6652L49.3651 38.413C49.1464 38.5816 48.8324 38.541 48.6638 38.3223C48.4952 38.1037 48.5358 37.7897 48.7545 37.6211L52.3181 34.8733Z" fill="white"/>
<path d="M39.1158 26L41.9469 26.9925L41.4507 28.408C41.1766 29.1898 40.3207 29.6014 39.5389 29.3273C38.7571 29.0533 38.3455 28.1973 38.6196 27.4155L39.1158 26Z" fill="black" fill-opacity="0.1"/>
<path d="M40.0595 26.3308L41.0032 26.6616L40.507 28.0772C40.4156 28.3378 40.1303 28.475 39.8697 28.3836C39.6091 28.2923 39.472 28.007 39.5633 27.7464L40.0595 26.3308Z" fill="white"/>
<path d="M45.9589 29.1435L48.3827 30.9113L47.4989 32.1232C47.0107 32.7925 46.0724 32.9394 45.4031 32.4513C44.7337 31.9631 44.5868 31.0248 45.075 30.3555L45.9589 29.1435Z" fill="black" fill-opacity="0.1"/>
<path d="M46.7668 29.7328L47.5748 30.322L46.6909 31.534C46.5282 31.7571 46.2154 31.806 45.9923 31.6433C45.7692 31.4806 45.7202 31.1678 45.883 30.9447L46.7668 29.7328Z" fill="white"/>
<path d="M22.0132 27.0152L24.8323 25.9892L25.3453 27.3988C25.6286 28.1772 25.2272 29.038 24.4487 29.3213C23.6703 29.6046 22.8095 29.2032 22.5262 28.4248L22.0132 27.0152Z" fill="black" fill-opacity="0.1"/>
<path d="M22.9529 26.6732L23.8926 26.3312L24.4056 27.7408C24.5 28.0003 24.3662 28.2872 24.1067 28.3816C23.8472 28.4761 23.5603 28.3423 23.4659 28.0828L22.9529 26.6732Z" fill="white"/>
<path d="M15.5881 30.9144L18.0094 29.1431L18.895 30.3537C19.3841 31.0223 19.2386 31.9609 18.57 32.45C17.9014 32.9391 16.9629 32.7936 16.4738 32.125L15.5881 30.9144Z" fill="black" fill-opacity="0.1"/>
<path d="M16.3952 30.3239L17.2023 29.7335L18.0879 30.9441C18.251 31.167 18.2025 31.4798 17.9796 31.6429C17.7567 31.8059 17.4439 31.7574 17.2808 31.5346L16.3952 30.3239Z" fill="white"/>
<path d="M7.02862 42.9172L8.24043 40.1729L9.61261 40.7788C10.3704 41.1134 10.7135 41.999 10.3789 42.7569C10.0443 43.5147 9.15863 43.8578 8.4008 43.5231L7.02862 42.9172Z" fill="black" fill-opacity="0.1"/>
<path d="M7.43256 42.0024L7.8365 41.0877L9.20867 41.6936C9.46129 41.8051 9.57564 42.1003 9.4641 42.3529C9.35255 42.6055 9.05735 42.7199 8.80474 42.6083L7.43256 42.0024Z" fill="white"/>
<path d="M5.24 50.17L5.74324 47.2125L7.22199 47.4641C8.03868 47.6031 8.58808 48.3778 8.44911 49.1945C8.31014 50.0111 7.53543 50.5605 6.71874 50.4216L5.24 50.17Z" fill="black" fill-opacity="0.1"/>
<path d="M5.40775 49.1841L5.5755 48.1983L7.05424 48.4499C7.32647 48.4962 7.5096 48.7545 7.46328 49.0267C7.41696 49.2989 7.15872 49.4821 6.88649 49.4358L5.40775 49.1841Z" fill="white"/>
<path d="M55.74 40.1698L56.9627 42.9093L55.593 43.5207C54.8365 43.8584 53.9495 43.5188 53.6119 42.7623C53.2742 42.0058 53.6138 41.1189 54.3702 40.7812L55.74 40.1698Z" fill="black" fill-opacity="0.1"/>
<path d="M56.1476 41.083L56.5552 41.9962L55.1854 42.6075C54.9332 42.7201 54.6376 42.6069 54.525 42.3548C54.4125 42.1026 54.5257 41.8069 54.7778 41.6944L56.1476 41.083Z" fill="white"/>
<path d="M58.28 47.2104L58.7883 50.167L57.31 50.4211C56.4935 50.5615 55.7179 50.0134 55.5775 49.197C55.4372 48.3805 55.9852 47.6049 56.8017 47.4645L58.28 47.2104Z" fill="black" fill-opacity="0.1"/>
<path d="M58.4494 48.1959L58.6189 49.1815L57.1405 49.4356C56.8684 49.4824 56.6098 49.2997 56.5631 49.0276C56.5163 48.7554 56.699 48.4969 56.9711 48.4501L58.4494 48.1959Z" fill="white"/>
<path d="M10.48 36.4336L12.3288 34.071L15.8727 36.8442C16.5251 37.3547 16.6402 38.2975 16.1296 38.9499C15.6191 39.6023 14.6763 39.7173 14.0239 39.2068L10.48 36.4336Z" fill="black" fill-opacity="0.1"/>
<path d="M11.0963 35.646L11.7125 34.8585L15.2564 37.6317C15.4739 37.8019 15.5123 38.1162 15.3421 38.3336C15.1719 38.5511 14.8577 38.5894 14.6402 38.4193L11.0963 35.646Z" fill="white"/>
<circle cx="32" cy="54" r="5" stroke="black" stroke-opacity="0.07" stroke-width="2"/>
<circle cx="32" cy="54" r="4.5" stroke="black" stroke-opacity="0.15"/>
<path d="M34.3665 54.9604L34.7473 55.3933L35.1219 54.9551L36.5578 53.2755L39.4295 49.9163L45.1731 43.1979L44.5191 42.4546L37.1242 47.2961L33.4267 49.7168L31.578 50.9272L31.0957 51.243L31.4765 51.6758L34.3665 54.9604Z" stroke="black" stroke-opacity="0.15" stroke-miterlimit="5.01585"/>
<path d="M34.709 54.4509L35.4707 55.3166L36.2199 54.4402L36.9378 53.6004L39.8096 50.2412L45.5531 43.5228L44.2453 42.0363L36.8503 46.8778L33.1529 49.2985L32.2285 49.9037L31.2638 50.5353L32.0255 51.4009L34.709 54.4509Z" stroke="black" stroke-opacity="0.07" stroke-width="2" stroke-miterlimit="5.01585"/>
<path d="M33.306 56.3098L30.0031 52.5559L44.793 42.873L33.306 56.3098Z" fill="url(#paint5_linear)"/>
<path d="M42.1386 45.2084L33.3005 55.5467L30.7593 52.6584L42.1386 45.2084Z" stroke="url(#paint6_linear)" stroke-miterlimit="16"/>
<circle cx="32" cy="54" r="4" fill="url(#paint7_linear)"/>
<circle cx="32" cy="54" r="3.5" stroke="url(#paint8_linear)"/>
<defs>
<linearGradient id="paint0_linear" x1="32" y1="49" x2="32" y2="57" gradientUnits="userSpaceOnUse">
<stop stop-opacity="0"/>
<stop offset="0.491713" stop-opacity="0.6"/>
<stop offset="1" stop-opacity="0"/>
</linearGradient>
<radialGradient id="paint1_radial" cx="0" cy="0" r="1" gradientUnits="userSpaceOnUse" gradientTransform="translate(9 53) rotate(-180) scale(8 4)">
<stop stop-opacity="0.6"/>
<stop offset="1" stop-opacity="0"/>
</radialGradient>
<radialGradient id="paint2_radial" cx="0" cy="0" r="1" gradientUnits="userSpaceOnUse" gradientTransform="translate(8 4) rotate(-180) scale(8 4)">
<stop stop-opacity="0.6"/>
<stop offset="1" stop-opacity="0"/>
</radialGradient>
<linearGradient id="paint3_linear" x1="32" y1="24.5" x2="32" y2="53.5" gradientUnits="userSpaceOnUse">
<stop stop-color="#667885"/>
<stop offset="1" stop-color="#485A6C"/>
</linearGradient>
<linearGradient id="paint4_linear" x1="32" y1="25" x2="32" y2="53" gradientUnits="userSpaceOnUse">
<stop stop-color="white" stop-opacity="0.26"/>
<stop offset="1" stop-color="white" stop-opacity="0.17"/>
</linearGradient>
<linearGradient id="paint5_linear" x1="44.793" y1="42.873" x2="34" y2="52" gradientUnits="userSpaceOnUse">
<stop stop-color="#F37329"/>
<stop offset="1" stop-color="#CC3B02"/>
</linearGradient>
<linearGradient id="paint6_linear" x1="44.793" y1="42.873" x2="31.6546" y2="54.4328" gradientUnits="userSpaceOnUse">
<stop stop-color="white" stop-opacity="0.48"/>
<stop offset="1" stop-color="white" stop-opacity="0.03"/>
</linearGradient>
<linearGradient id="paint7_linear" x1="32" y1="50" x2="32" y2="67" gradientUnits="userSpaceOnUse">
<stop stop-color="#A10705"/>
<stop offset="1" stop-color="#7A0000"/>
</linearGradient>
<linearGradient id="paint8_linear" x1="32" y1="50" x2="32" y2="58" gradientUnits="userSpaceOnUse">
<stop stop-color="white" stop-opacity="0.41"/>
<stop offset="1" stop-color="white" stop-opacity="0.19"/>
</linearGradient>
</defs>
</svg>
