<svg width="128" height="128" viewBox="0 0 128 128" fill="none" xmlns="http://www.w3.org/2000/svg">
<rect x="18" y="100" width="92" height="16" fill="url(#paint0_linear)"/>
<rect x="2" y="100" width="16" height="16" fill="url(#paint1_radial)"/>
<rect width="16" height="16" transform="matrix(-1 0 0 1 126 100)" fill="url(#paint2_radial)"/>
<path d="M64 49.5C33.3482 49.5 8.5 75.6391 8.5 108.5H119.5C119.5 75.6391 94.6518 49.5 64 49.5Z" fill="url(#paint3_linear)"/>
<path d="M8.50192 108.5C8.75252 75.8368 33.5354 49.5 64 49.5C94.4646 49.5 119.247 75.8368 119.498 108.5H8.50192Z" stroke="black" stroke-opacity="0.5"/>
<path d="M9.50202 107.5C9.75659 75.949 34.083 50.5 64 50.5C93.917 50.5 118.243 75.949 118.498 107.5H9.50202Z" stroke="url(#paint4_linear)"/>
<path d="M62 51H65V60.5C65 61.3284 64.3284 62 63.5 62V62C62.6716 62 62 61.3284 62 60.5V51Z" fill="black" fill-opacity="0.1"/>
<path d="M62.97 51H63.97V60.5377C63.97 60.8138 63.7461 61.0377 63.47 61.0377V61.0377C63.1939 61.0377 62.97 60.8138 62.97 60.5377V51Z" fill="white"/>
<path d="M104.25 69.93L106.082 72.3058L98.5586 78.1067C97.9026 78.6126 96.9607 78.4908 96.4548 77.8348V77.8348C95.949 77.1787 96.0707 76.2368 96.7268 75.7309L104.25 69.93Z" fill="black" fill-opacity="0.1"/>
<path d="M104.86 70.72L105.471 71.5119L97.9176 77.3359C97.6989 77.5045 97.3849 77.4639 97.2163 77.2452V77.2452C97.0477 77.0265 97.0882 76.7126 97.3069 76.5439L104.86 70.72Z" fill="white"/>
<path d="M79.29 53.3L82.1211 54.2925L80.9632 57.5954C80.6892 58.3772 79.8332 58.7888 79.0515 58.5147V58.5147C78.2697 58.2406 77.8581 57.3847 78.1321 56.6029L79.29 53.3Z" fill="black" fill-opacity="0.1"/>
<path d="M80.25 53.6717L81.1937 54.0025L80.0308 57.3196C79.9395 57.5802 79.6542 57.7174 79.3936 57.6261V57.6261C79.133 57.5347 78.9958 57.2494 79.0872 56.9888L80.25 53.6717Z" fill="white"/>
<path d="M92.69 59.72L95.1138 61.4877L93.0515 64.3156C92.5633 64.9849 91.625 65.1318 90.9557 64.6436V64.6436C90.2863 64.1555 90.1395 63.2172 90.6276 62.5478L92.69 59.72Z" fill="black" fill-opacity="0.1"/>
<path d="M93.52 60.2L94.328 60.7892L92.2567 63.6293C92.094 63.8524 91.7812 63.9013 91.5581 63.7386V63.7386C91.335 63.5759 91.286 63.2631 91.4488 63.04L93.52 60.2Z" fill="white"/>
<path d="M112.23 82.25L113.453 84.9895L110.257 86.416C109.5 86.7537 108.613 86.4142 108.276 85.6577V85.6577C107.938 84.9012 108.277 84.0142 109.034 83.6765L112.23 82.25Z" fill="black" fill-opacity="0.1"/>
<path d="M112.58 83.1L112.988 84.0132L109.778 85.4458C109.526 85.5584 109.23 85.4452 109.117 85.1931V85.1931C109.005 84.9409 109.118 84.6452 109.37 84.5327L112.58 83.1Z" fill="white"/>
<path d="M116.93 96.6L117.438 99.5566L113.989 100.15C113.172 100.29 112.397 99.7419 112.256 98.9255V98.9255C112.116 98.109 112.664 97.3334 113.481 97.193L116.93 96.6Z" fill="black" fill-opacity="0.1"/>
<path d="M117.07 97.5666L117.239 98.5521L113.775 99.1477C113.503 99.1945 113.244 99.0118 113.197 98.7396V98.7396C113.151 98.4675 113.333 98.2089 113.605 98.1622L117.07 97.5666Z" fill="white"/>
<path d="M23.7675 69.93L21.9357 72.3058L29.4585 78.1067C30.1145 78.6125 31.0564 78.4908 31.5622 77.8348V77.8348C32.068 77.1787 31.9463 76.2368 31.2903 75.7309L23.7675 69.93Z" fill="black" fill-opacity="0.1"/>
<path d="M23.1575 70.72L22.547 71.5119L30.0996 77.3359C30.3182 77.5045 30.6322 77.4639 30.8008 77.2452V77.2452C30.9694 77.0265 30.9288 76.7126 30.7102 76.5439L23.1575 70.72Z" fill="white"/>
<path d="M48.726 53.3L45.8951 54.2925L47.0529 57.5954C47.3269 58.3772 48.1828 58.7888 48.9646 58.5147V58.5147C49.7463 58.2406 50.1579 57.3847 49.8838 56.603L48.726 53.3Z" fill="black" fill-opacity="0.1"/>
<path d="M47.7661 53.6717L46.8224 54.0025L47.9852 57.3197C48.0766 57.5802 48.3619 57.7174 48.6224 57.6261V57.6261C48.883 57.5347 49.0202 57.2494 48.9289 56.9888L47.7661 53.6717Z" fill="white"/>
<path d="M35.3262 59.7192L32.9025 61.4869L34.9648 64.3148C35.4529 64.9841 36.3911 65.131 37.0604 64.6428V64.6428C37.7297 64.1547 37.8766 63.2163 37.3885 62.547L35.3262 59.7192Z" fill="black" fill-opacity="0.1"/>
<path d="M34.4969 60.2L33.689 60.7892L35.7601 63.6293C35.9228 63.8524 36.2355 63.9013 36.4586 63.7386V63.7386C36.6817 63.5759 36.7307 63.2631 36.568 63.04L34.4969 60.2Z" fill="white"/>
<path d="M15.788 82.25L14.5653 84.9895L17.7611 86.416C18.5176 86.7537 19.4046 86.4142 19.7422 85.6577V85.6577C20.0798 84.9012 19.7403 84.0142 18.9838 83.6765L15.788 82.25Z" fill="black" fill-opacity="0.1"/>
<path d="M15.4382 83.0994L15.0306 84.0126L18.2402 85.4452C18.4924 85.5578 18.7881 85.4446 18.9006 85.1924V85.1924C19.0131 84.9403 18.9 84.6446 18.6478 84.5321L15.4382 83.0994Z" fill="white"/>
<path d="M11.0883 96.6L10.58 99.5566L14.0291 100.15C14.8455 100.29 15.6212 99.7419 15.7615 98.9255V98.9255C15.9019 98.109 15.3538 97.3334 14.5374 97.193L11.0883 96.6Z" fill="black" fill-opacity="0.1"/>
<path d="M10.9479 97.5657L10.7785 98.5512L14.2425 99.1468C14.5147 99.1936 14.7732 99.0109 14.82 98.7387V98.7387C14.8668 98.4666 14.6841 98.208 14.412 98.1612L10.9479 97.5657Z" fill="white"/>
<circle cx="62" cy="109" r="9" stroke="black" stroke-opacity="0.07" stroke-width="2"/>
<circle cx="62" cy="109" r="8.5" stroke="black" stroke-opacity="0.15"/>
<path d="M67.1045 110.593L67.4853 111.025L67.8599 110.587L70.7311 107.229L76.4734 100.512L87.9579 87.0779L87.304 86.3347L72.5173 96.0156L65.124 100.856L61.4273 103.276L60.945 103.592L61.3258 104.025L67.1045 110.593Z" stroke="black" stroke-opacity="0.15" stroke-miterlimit="5.01585"/>
<path d="M68.1647 109.244L68.9263 110.109L69.6756 109.233L71.1111 107.554L76.8534 100.837L88.338 87.4028L87.0301 85.9164L72.2435 95.5972L64.8501 100.438L63.0018 101.648L62.0371 102.279L62.7988 103.145L68.1647 109.244Z" stroke="black" stroke-opacity="0.07" stroke-width="2" stroke-miterlimit="5.01585"/>
<path d="M64.6088 113.621L58.0045 106.115L87.5779 86.753L64.6088 113.621Z" fill="url(#paint5_linear)"/>
<path d="M64.6033 112.858L58.7607 106.217L84.9235 89.0885L64.6033 112.858Z" stroke="url(#paint6_linear)" stroke-miterlimit="16"/>
<circle cx="61.9974" cy="109.002" r="7.99827" fill="url(#paint7_linear)"/>
<circle cx="61.9974" cy="109.002" r="7.49827" stroke="url(#paint8_linear)"/>
<defs>
<linearGradient id="paint0_linear" x1="64" y1="100" x2="64" y2="116" gradientUnits="userSpaceOnUse">
<stop stop-opacity="0"/>
<stop offset="0.491713" stop-opacity="0.6"/>
<stop offset="1" stop-opacity="0"/>
</linearGradient>
<radialGradient id="paint1_radial" cx="0" cy="0" r="1" gradientUnits="userSpaceOnUse" gradientTransform="translate(18 108) rotate(-180) scale(16 8)">
<stop stop-opacity="0.6"/>
<stop offset="1" stop-opacity="0"/>
</radialGradient>
<radialGradient id="paint2_radial" cx="0" cy="0" r="1" gradientUnits="userSpaceOnUse" gradientTransform="translate(16 8) rotate(-180) scale(16 8)">
<stop stop-opacity="0.6"/>
<stop offset="1" stop-opacity="0"/>
</radialGradient>
<linearGradient id="paint3_linear" x1="64" y1="49.5" x2="64" y2="108.5" gradientUnits="userSpaceOnUse">
<stop stop-color="#667885"/>
<stop offset="1" stop-color="#485A6C"/>
</linearGradient>
<linearGradient id="paint4_linear" x1="64" y1="50" x2="64" y2="108" gradientUnits="userSpaceOnUse">
<stop stop-color="white" stop-opacity="0.26"/>
<stop offset="1" stop-color="white" stop-opacity="0.17"/>
</linearGradient>
<linearGradient id="paint5_linear" x1="87.5779" y1="86.753" x2="65.9965" y2="105.003" gradientUnits="userSpaceOnUse">
<stop stop-color="#F37329"/>
<stop offset="1" stop-color="#CC3B02"/>
</linearGradient>
<linearGradient id="paint6_linear" x1="87.5779" y1="86.753" x2="61.3066" y2="109.868" gradientUnits="userSpaceOnUse">
<stop stop-color="white" stop-opacity="0.48"/>
<stop offset="1" stop-color="white" stop-opacity="0.03"/>
</linearGradient>
<linearGradient id="paint7_linear" x1="61.9974" y1="101.004" x2="61.9974" y2="134.997" gradientUnits="userSpaceOnUse">
<stop stop-color="#A10705"/>
<stop offset="1" stop-color="#7A0000"/>
</linearGradient>
<linearGradient id="paint8_linear" x1="61.9974" y1="101.004" x2="61.9974" y2="117.001" gradientUnits="userSpaceOnUse">
<stop stop-color="white" stop-opacity="0.41"/>
<stop offset="1" stop-color="white" stop-opacity="0.19"/>
</linearGradient>
</defs>
</svg>
