<svg width="128" height="128" viewBox="0 0 128 128" fill="none" xmlns="http://www.w3.org/2000/svg">
<rect x="18" y="101" width="92" height="16" fill="url(#paint0_linear)"/>
<rect x="2" y="101" width="16" height="16" fill="url(#paint1_radial)"/>
<rect width="16" height="16" transform="matrix(-1 0 0 1 126 101)" fill="url(#paint2_radial)"/>
<path d="M64 50.5C33.3482 50.5 8.5 76.6391 8.5 109.5H119.5C119.5 76.6391 94.6518 50.5 64 50.5Z" fill="url(#paint3_linear)"/>
<path d="M8.50192 109.5C8.75252 76.8368 33.5354 50.5 64 50.5C94.4646 50.5 119.247 76.8368 119.498 109.5H8.50192Z" stroke="black" stroke-opacity="0.5"/>
<path d="M9.50202 108.5C9.75659 76.949 34.083 51.5 64 51.5C93.917 51.5 118.243 76.949 118.498 108.5H9.50202Z" stroke="url(#paint4_linear)"/>
<path d="M62 52H65V61.5C65 62.3284 64.3284 63 63.5 63V63C62.6716 63 62 62.3284 62 61.5V52Z" fill="black" fill-opacity="0.1"/>
<path d="M62.97 52H63.97V61.5377C63.97 61.8138 63.7461 62.0377 63.47 62.0377V62.0377C63.1939 62.0377 62.97 61.8138 62.97 61.5377V52Z" fill="white"/>
<path d="M104.25 70.93L106.082 73.3058L98.5586 79.1067C97.9026 79.6126 96.9607 79.4908 96.4548 78.8348V78.8348C95.949 78.1787 96.0707 77.2368 96.7268 76.7309L104.25 70.93Z" fill="black" fill-opacity="0.1"/>
<path d="M104.86 71.72L105.471 72.5119L97.9176 78.3359C97.6989 78.5045 97.3849 78.4639 97.2163 78.2452V78.2452C97.0477 78.0265 97.0882 77.7126 97.3069 77.5439L104.86 71.72Z" fill="white"/>
<path d="M79.29 54.3L82.1211 55.2925L80.9632 58.5954C80.6892 59.3772 79.8332 59.7888 79.0515 59.5147V59.5147C78.2697 59.2406 77.8581 58.3847 78.1321 57.6029L79.29 54.3Z" fill="black" fill-opacity="0.1"/>
<path d="M80.25 54.6717L81.1937 55.0025L80.0308 58.3196C79.9395 58.5802 79.6542 58.7174 79.3936 58.6261V58.6261C79.133 58.5347 78.9958 58.2494 79.0872 57.9888L80.25 54.6717Z" fill="white"/>
<path d="M92.69 60.72L95.1138 62.4877L93.0515 65.3156C92.5633 65.9849 91.625 66.1318 90.9557 65.6436V65.6436C90.2863 65.1555 90.1395 64.2172 90.6276 63.5478L92.69 60.72Z" fill="black" fill-opacity="0.1"/>
<path d="M93.52 61.2L94.328 61.7892L92.2567 64.6293C92.094 64.8524 91.7812 64.9013 91.5581 64.7386V64.7386C91.335 64.5759 91.286 64.2631 91.4488 64.04L93.52 61.2Z" fill="white"/>
<path d="M112.23 83.25L113.453 85.9895L110.257 87.416C109.5 87.7537 108.613 87.4142 108.276 86.6577V86.6577C107.938 85.9012 108.277 85.0142 109.034 84.6765L112.23 83.25Z" fill="black" fill-opacity="0.1"/>
<path d="M112.58 84.1L112.988 85.0132L109.778 86.4458C109.526 86.5584 109.23 86.4452 109.117 86.1931V86.1931C109.005 85.9409 109.118 85.6452 109.37 85.5327L112.58 84.1Z" fill="white"/>
<path d="M116.93 97.6L117.438 100.557L113.989 101.15C113.172 101.29 112.397 100.742 112.256 99.9255V99.9255C112.116 99.109 112.664 98.3334 113.481 98.193L116.93 97.6Z" fill="black" fill-opacity="0.1"/>
<path d="M117.07 98.5666L117.239 99.5521L113.775 100.148C113.503 100.194 113.244 100.012 113.197 99.7396V99.7396C113.151 99.4675 113.333 99.2089 113.605 99.1622L117.07 98.5666Z" fill="white"/>
<path d="M23.7675 70.93L21.9357 73.3058L29.4585 79.1067C30.1145 79.6125 31.0564 79.4908 31.5622 78.8348V78.8348C32.068 78.1787 31.9463 77.2368 31.2903 76.7309L23.7675 70.93Z" fill="black" fill-opacity="0.1"/>
<path d="M23.1575 71.72L22.547 72.5119L30.0996 78.3359C30.3182 78.5045 30.6322 78.4639 30.8008 78.2452V78.2452C30.9694 78.0265 30.9288 77.7126 30.7102 77.5439L23.1575 71.72Z" fill="white"/>
<path d="M48.726 54.3L45.8951 55.2925L47.0529 58.5954C47.3269 59.3772 48.1828 59.7888 48.9646 59.5147V59.5147C49.7463 59.2406 50.1579 58.3847 49.8838 57.603L48.726 54.3Z" fill="black" fill-opacity="0.1"/>
<path d="M47.7661 54.6717L46.8224 55.0025L47.9852 58.3197C48.0766 58.5802 48.3619 58.7174 48.6224 58.6261V58.6261C48.883 58.5347 49.0202 58.2494 48.9289 57.9888L47.7661 54.6717Z" fill="white"/>
<path d="M35.3262 60.7192L32.9025 62.4869L34.9648 65.3148C35.4529 65.9841 36.3911 66.131 37.0604 65.6428V65.6428C37.7297 65.1547 37.8766 64.2163 37.3885 63.547L35.3262 60.7192Z" fill="black" fill-opacity="0.1"/>
<path d="M34.4969 61.2L33.689 61.7892L35.7601 64.6293C35.9228 64.8524 36.2355 64.9013 36.4586 64.7386V64.7386C36.6817 64.5759 36.7307 64.2631 36.568 64.04L34.4969 61.2Z" fill="white"/>
<path d="M15.788 83.25L14.5653 85.9895L17.7611 87.416C18.5176 87.7537 19.4046 87.4142 19.7422 86.6577V86.6577C20.0798 85.9012 19.7403 85.0142 18.9838 84.6765L15.788 83.25Z" fill="black" fill-opacity="0.1"/>
<path d="M15.4382 84.0994L15.0306 85.0126L18.2402 86.4452C18.4924 86.5578 18.7881 86.4446 18.9006 86.1924V86.1924C19.0131 85.9403 18.9 85.6446 18.6478 85.5321L15.4382 84.0994Z" fill="white"/>
<path d="M11.0883 97.6L10.58 100.557L14.0291 101.15C14.8455 101.29 15.6212 100.742 15.7615 99.9255V99.9255C15.9019 99.109 15.3538 98.3334 14.5374 98.193L11.0883 97.6Z" fill="black" fill-opacity="0.1"/>
<path d="M10.9479 98.5657L10.7785 99.5512L14.2425 100.147C14.5147 100.194 14.7732 100.011 14.82 99.7387V99.7387C14.8668 99.4666 14.6841 99.208 14.412 99.1612L10.9479 98.5657Z" fill="white"/>
<circle cx="62" cy="110" r="9" stroke="black" stroke-opacity="0.07" stroke-width="2"/>
<circle cx="62" cy="110" r="8.5" stroke="black" stroke-opacity="0.15"/>
<path d="M67.1045 111.593L67.4853 112.025L67.8599 111.587L70.7311 108.229L76.4734 101.512L87.9579 88.0779L87.304 87.3347L72.5173 97.0156L65.124 101.856L61.4273 104.276L60.945 104.592L61.3258 105.025L67.1045 111.593Z" stroke="black" stroke-opacity="0.15" stroke-miterlimit="5.01585"/>
<path d="M68.1647 110.244L68.9263 111.109L69.6756 110.233L71.1111 108.554L76.8534 101.837L88.338 88.4028L87.0301 86.9164L72.2435 96.5972L64.8501 101.438L63.0018 102.648L62.0371 103.279L62.7988 104.145L68.1647 110.244Z" stroke="black" stroke-opacity="0.07" stroke-width="2" stroke-miterlimit="5.01585"/>
<path d="M64.6088 114.621L58.0045 107.115L87.5779 87.753L64.6088 114.621Z" fill="url(#paint5_linear)"/>
<path d="M64.6033 113.858L58.7607 107.217L84.9235 90.0885L64.6033 113.858Z" stroke="url(#paint6_linear)" stroke-miterlimit="16"/>
<circle cx="61.9974" cy="110.002" r="7.99827" fill="url(#paint7_linear)"/>
<circle cx="61.9974" cy="110.002" r="7.49827" stroke="url(#paint8_linear)"/>
<defs>
<linearGradient id="paint0_linear" x1="64" y1="101" x2="64" y2="117" gradientUnits="userSpaceOnUse">
<stop stop-opacity="0"/>
<stop offset="0.491713" stop-opacity="0.6"/>
<stop offset="1" stop-opacity="0"/>
</linearGradient>
<radialGradient id="paint1_radial" cx="0" cy="0" r="1" gradientUnits="userSpaceOnUse" gradientTransform="translate(18 109) rotate(-180) scale(16 8)">
<stop stop-opacity="0.6"/>
<stop offset="1" stop-opacity="0"/>
</radialGradient>
<radialGradient id="paint2_radial" cx="0" cy="0" r="1" gradientUnits="userSpaceOnUse" gradientTransform="translate(16 8) rotate(-180) scale(16 8)">
<stop stop-opacity="0.6"/>
<stop offset="1" stop-opacity="0"/>
</radialGradient>
<linearGradient id="paint3_linear" x1="64" y1="50.5" x2="64" y2="109.5" gradientUnits="userSpaceOnUse">
<stop stop-color="#667885"/>
<stop offset="1" stop-color="#485A6C"/>
</linearGradient>
<linearGradient id="paint4_linear" x1="64" y1="51" x2="64" y2="109" gradientUnits="userSpaceOnUse">
<stop stop-color="white" stop-opacity="0.26"/>
<stop offset="1" stop-color="white" stop-opacity="0.17"/>
</linearGradient>
<linearGradient id="paint5_linear" x1="87.5779" y1="87.753" x2="65.9965" y2="106.003" gradientUnits="userSpaceOnUse">
<stop stop-color="#F37329"/>
<stop offset="1" stop-color="#CC3B02"/>
</linearGradient>
<linearGradient id="paint6_linear" x1="87.5779" y1="87.753" x2="61.3066" y2="110.868" gradientUnits="userSpaceOnUse">
<stop stop-color="white" stop-opacity="0.48"/>
<stop offset="1" stop-color="white" stop-opacity="0.03"/>
</linearGradient>
<linearGradient id="paint7_linear" x1="61.9974" y1="102.004" x2="61.9974" y2="135.997" gradientUnits="userSpaceOnUse">
<stop stop-color="#A10705"/>
<stop offset="1" stop-color="#7A0000"/>
</linearGradient>
<linearGradient id="paint8_linear" x1="61.9974" y1="102.004" x2="61.9974" y2="118.001" gradientUnits="userSpaceOnUse">
<stop stop-color="white" stop-opacity="0.41"/>
<stop offset="1" stop-color="white" stop-opacity="0.19"/>
</linearGradient>
</defs>
</svg>
