<svg width="16" height="16" viewBox="0 0 16 16" fill="none" xmlns="http://www.w3.org/2000/svg">
<rect x="3" y="8" width="10" height="3" fill="url(#paint0_linear)"/>
<rect y="8" width="3" height="3" fill="url(#paint1_radial)"/>
<rect width="3" height="3" transform="matrix(-1 0 0 1 16 8)" fill="url(#paint2_radial)"/>
<path d="M8 2.5C4.41015 2.5 2.04167 5.63833 1.5 9.5H14.5C13.9583 5.63833 11.5899 2.5 8 2.5Z" fill="url(#paint3_linear)"/>
<path d="M1.51409 9.5C1.73841 5.53504 4.61186 2.5 8 2.5C11.3881 2.5 14.2616 5.53504 14.4859 9.5H1.51409Z" stroke="black" stroke-opacity="0.5"/>
<path d="M13.3998 8.5H2.60023C3.22754 5.62497 5.20331 3.5 8 3.5C10.7967 3.5 12.7725 5.62497 13.3998 8.5Z" stroke="url(#paint4_linear)" stroke-opacity="0.5"/>
<path d="M6.5 3H9.5V4.5C9.5 5.32843 8.82843 6 8 6V6C7.17157 6 6.5 5.32843 6.5 4.5V3Z" fill="black" fill-opacity="0.1"/>
<path d="M7.5 3H8.5V4.5C8.5 4.77614 8.27614 5 8 5V5C7.72386 5 7.5 4.77614 7.5 4.5V3Z" fill="white"/>
<path d="M11.5008 3.9917L13.3503 6.3538L12.9571 6.66278C12.3058 7.17472 11.3638 7.06096 10.8531 6.40868V6.40868C10.3424 5.7564 10.4564 4.81262 11.1077 4.30068L11.5008 3.9917Z" fill="black" fill-opacity="0.1"/>
<path d="M12.0902 4.76163L12.7067 5.549L12.3136 5.85798C12.0965 6.02863 11.7825 5.99071 11.6122 5.77328V5.77328C11.442 5.55586 11.48 5.24126 11.6971 5.07062L12.0902 4.76163Z" fill="white"/>
<path d="M4.55846 3.9917L2.71001 6.3538L3.10274 6.66266C3.75379 7.17467 4.69535 7.06096 5.20579 6.40868V6.40868C5.71622 5.7564 5.60223 4.81257 4.95119 4.30056L4.55846 3.9917Z" fill="black" fill-opacity="0.1"/>
<path d="M3.96936 4.76163L3.35321 5.549L3.74605 5.85794C3.96306 6.02861 4.27692 5.99071 4.44706 5.77328V5.77328C4.61721 5.55586 4.57921 5.24125 4.3622 5.07058L3.96936 4.76163Z" fill="white"/>
<circle cx="7.75" cy="9.25" r="3" stroke="black" stroke-opacity="0.07" stroke-width="2"/>
<circle cx="7.75" cy="9.25" r="2.5" stroke="black" stroke-opacity="0.15"/>
<path d="M8.05959 9.73807L8.44041 10.1709L8.81503 9.7327L9.17392 9.31289L9.89171 8.47327L11.3273 6.79403L10.6734 6.05081L8.82502 7.26092L7.90085 7.86597L7.43877 8.1685L6.95644 8.48428L7.33726 8.9171L8.05959 9.73807Z" stroke="black" stroke-opacity="0.15" stroke-miterlimit="5.01585"/>
<path d="M7.86367 9.85845L8.62531 10.7241L9.37454 9.84769L9.55399 9.63779L10.2718 8.79817L11.7073 7.11894L10.3995 5.63249L8.55116 6.84259L7.627 7.44765L7.39595 7.59891L6.4313 8.23047L7.19293 9.09612L7.86367 9.85845Z" stroke="black" stroke-opacity="0.07" stroke-width="2" stroke-miterlimit="5.01585"/>
<path d="M9 10.5L6.5 8L10.9472 6.46913L9 10.5Z" fill="url(#paint5_linear)"/>
<path d="M8.85591 9.64881L7.41941 8.21231L9.97479 7.33267L8.85591 9.64881Z" stroke="url(#paint6_linear)" stroke-miterlimit="16"/>
<circle cx="7.74989" cy="9.2505" r="2" fill="url(#paint7_linear)"/>
<circle cx="7.74989" cy="9.2505" r="1.5" stroke="url(#paint8_linear)"/>
<defs>
<linearGradient id="paint0_linear" x1="8" y1="8" x2="8" y2="11" gradientUnits="userSpaceOnUse">
<stop stop-opacity="0"/>
<stop offset="0.491713" stop-opacity="0.6"/>
<stop offset="1" stop-opacity="0"/>
</linearGradient>
<radialGradient id="paint1_radial" cx="0" cy="0" r="1" gradientUnits="userSpaceOnUse" gradientTransform="translate(3 9.5) rotate(-180) scale(3 1.5)">
<stop stop-opacity="0.6"/>
<stop offset="1" stop-opacity="0"/>
</radialGradient>
<radialGradient id="paint2_radial" cx="0" cy="0" r="1" gradientUnits="userSpaceOnUse" gradientTransform="translate(3 1.5) rotate(-180) scale(3 1.5)">
<stop stop-opacity="0.6"/>
<stop offset="1" stop-opacity="0"/>
</radialGradient>
<linearGradient id="paint3_linear" x1="8" y1="2.5" x2="8" y2="9.5" gradientUnits="userSpaceOnUse">
<stop stop-color="#667885"/>
<stop offset="1" stop-color="#485A6C"/>
</linearGradient>
<linearGradient id="paint4_linear" x1="8" y1="3" x2="8" y2="9" gradientUnits="userSpaceOnUse">
<stop stop-color="white" stop-opacity="0.26"/>
<stop offset="1" stop-color="white" stop-opacity="0.17"/>
</linearGradient>
<linearGradient id="paint5_linear" x1="10.9472" y1="6.46913" x2="8.24958" y2="8.75039" gradientUnits="userSpaceOnUse">
<stop stop-color="#F37329"/>
<stop offset="1" stop-color="#CC3B02"/>
</linearGradient>
<linearGradient id="paint6_linear" x1="10.9472" y1="6.46913" x2="7.66334" y2="9.35847" gradientUnits="userSpaceOnUse">
<stop stop-color="white" stop-opacity="0.48"/>
<stop offset="1" stop-color="white" stop-opacity="0.03"/>
</linearGradient>
<linearGradient id="paint7_linear" x1="7.74989" y1="7.2505" x2="7.74989" y2="15.7505" gradientUnits="userSpaceOnUse">
<stop stop-color="#A10705"/>
<stop offset="1" stop-color="#7A0000"/>
</linearGradient>
<linearGradient id="paint8_linear" x1="7.74989" y1="7.2505" x2="7.74989" y2="11.2505" gradientUnits="userSpaceOnUse">
<stop stop-color="white" stop-opacity="0.41"/>
<stop offset="1" stop-color="white" stop-opacity="0.19"/>
</linearGradient>
</defs>
</svg>
