<svg width="16" height="16" viewBox="0 0 16 16" fill="none" xmlns="http://www.w3.org/2000/svg">
<rect x="3" y="10" width="10" height="3" fill="url(#paint0_linear)"/>
<rect y="10" width="3" height="3" fill="url(#paint1_radial)"/>
<rect width="3" height="3" transform="matrix(-1 0 0 1 16 10)" fill="url(#paint2_radial)"/>
<path d="M8 4.5C4.41015 4.5 2.04167 7.63833 1.5 11.5H14.5C13.9583 7.63833 11.5899 4.5 8 4.5Z" fill="url(#paint3_linear)"/>
<path d="M1.51409 11.5C1.73841 7.53504 4.61186 4.5 8 4.5C11.3881 4.5 14.2616 7.53504 14.4859 11.5H1.51409Z" stroke="black" stroke-opacity="0.5"/>
<path d="M13.3998 10.5H2.60023C3.22754 7.62497 5.20331 5.5 8 5.5C10.7967 5.5 12.7725 7.62497 13.3998 10.5Z" stroke="url(#paint4_linear)" stroke-opacity="0.5"/>
<path d="M6.5 5H9.5V6.5C9.5 7.32843 8.82843 8 8 8V8C7.17157 8 6.5 7.32843 6.5 6.5V5Z" fill="black" fill-opacity="0.1"/>
<path d="M7.5 5H8.5V6.5C8.5 6.77614 8.27614 7 8 7V7C7.72386 7 7.5 6.77614 7.5 6.5V5Z" fill="white"/>
<path d="M11.5008 5.9917L13.3503 8.3538L12.9571 8.66278C12.3058 9.17472 11.3638 9.06096 10.8531 8.40868V8.40868C10.3424 7.7564 10.4564 6.81262 11.1077 6.30068L11.5008 5.9917Z" fill="black" fill-opacity="0.1"/>
<path d="M12.0902 6.76163L12.7067 7.549L12.3136 7.85798C12.0965 8.02863 11.7825 7.99071 11.6122 7.77328V7.77328C11.442 7.55586 11.48 7.24126 11.6971 7.07062L12.0902 6.76163Z" fill="white"/>
<path d="M4.55846 5.9917L2.71001 8.3538L3.10274 8.66266C3.75379 9.17467 4.69535 9.06096 5.20579 8.40868V8.40868C5.71622 7.7564 5.60223 6.81257 4.95119 6.30056L4.55846 5.9917Z" fill="black" fill-opacity="0.1"/>
<path d="M3.96936 6.76163L3.35321 7.549L3.74605 7.85794C3.96306 8.02861 4.27692 7.99071 4.44706 7.77328V7.77328C4.61721 7.55586 4.57921 7.24125 4.3622 7.07058L3.96936 6.76163Z" fill="white"/>
<circle cx="7.75" cy="11.25" r="3" stroke="black" stroke-opacity="0.07" stroke-width="2"/>
<circle cx="7.75" cy="11.25" r="2.5" stroke="black" stroke-opacity="0.15"/>
<path d="M8.05959 11.7381L8.44041 12.1709L8.81503 11.7327L9.17392 11.3129L9.89171 10.4733L11.3273 8.79403L10.6734 8.05081L8.82502 9.26092L7.90085 9.86597L7.43877 10.1685L6.95644 10.4843L7.33726 10.9171L8.05959 11.7381Z" stroke="black" stroke-opacity="0.15" stroke-miterlimit="5.01585"/>
<path d="M7.86367 11.8585L8.62531 12.7241L9.37454 11.8477L9.55399 11.6378L10.2718 10.7982L11.7073 9.11894L10.3995 7.63249L8.55116 8.84259L7.627 9.44765L7.39595 9.59891L6.4313 10.2305L7.19293 11.0961L7.86367 11.8585Z" stroke="black" stroke-opacity="0.07" stroke-width="2" stroke-miterlimit="5.01585"/>
<path d="M9 12.5L6.5 10L10.9472 8.46913L9 12.5Z" fill="url(#paint5_linear)"/>
<path d="M8.85591 11.6488L7.41941 10.2123L9.97479 9.33267L8.85591 11.6488Z" stroke="url(#paint6_linear)" stroke-miterlimit="16"/>
<circle cx="7.74989" cy="11.2505" r="2" fill="url(#paint7_linear)"/>
<circle cx="7.74989" cy="11.2505" r="1.5" stroke="url(#paint8_linear)"/>
<defs>
<linearGradient id="paint0_linear" x1="8" y1="10" x2="8" y2="13" gradientUnits="userSpaceOnUse">
<stop stop-opacity="0"/>
<stop offset="0.491713" stop-opacity="0.6"/>
<stop offset="1" stop-opacity="0"/>
</linearGradient>
<radialGradient id="paint1_radial" cx="0" cy="0" r="1" gradientUnits="userSpaceOnUse" gradientTransform="translate(3 11.5) rotate(-180) scale(3 1.5)">
<stop stop-opacity="0.6"/>
<stop offset="1" stop-opacity="0"/>
</radialGradient>
<radialGradient id="paint2_radial" cx="0" cy="0" r="1" gradientUnits="userSpaceOnUse" gradientTransform="translate(3 1.5) rotate(-180) scale(3 1.5)">
<stop stop-opacity="0.6"/>
<stop offset="1" stop-opacity="0"/>
</radialGradient>
<linearGradient id="paint3_linear" x1="8" y1="4.5" x2="8" y2="11.5" gradientUnits="userSpaceOnUse">
<stop stop-color="#667885"/>
<stop offset="1" stop-color="#485A6C"/>
</linearGradient>
<linearGradient id="paint4_linear" x1="8" y1="5" x2="8" y2="11" gradientUnits="userSpaceOnUse">
<stop stop-color="white" stop-opacity="0.26"/>
<stop offset="1" stop-color="white" stop-opacity="0.17"/>
</linearGradient>
<linearGradient id="paint5_linear" x1="10.9472" y1="8.46913" x2="8.24958" y2="10.7504" gradientUnits="userSpaceOnUse">
<stop stop-color="#F37329"/>
<stop offset="1" stop-color="#CC3B02"/>
</linearGradient>
<linearGradient id="paint6_linear" x1="10.9472" y1="8.46913" x2="7.66334" y2="11.3585" gradientUnits="userSpaceOnUse">
<stop stop-color="white" stop-opacity="0.48"/>
<stop offset="1" stop-color="white" stop-opacity="0.03"/>
</linearGradient>
<linearGradient id="paint7_linear" x1="7.74989" y1="9.2505" x2="7.74989" y2="17.7505" gradientUnits="userSpaceOnUse">
<stop stop-color="#A10705"/>
<stop offset="1" stop-color="#7A0000"/>
</linearGradient>
<linearGradient id="paint8_linear" x1="7.74989" y1="9.2505" x2="7.74989" y2="13.2505" gradientUnits="userSpaceOnUse">
<stop stop-color="white" stop-opacity="0.41"/>
<stop offset="1" stop-color="white" stop-opacity="0.19"/>
</linearGradient>
</defs>
</svg>
