<svg width="48" height="48" viewBox="0 0 48 48" fill="none" xmlns="http://www.w3.org/2000/svg">
<rect x="8" y="38" width="32" height="6" fill="url(#paint0_linear)"/>
<rect x="2" y="38" width="6" height="6" fill="url(#paint1_radial)"/>
<rect width="6" height="6" transform="matrix(-1 0 0 1 46 38)" fill="url(#paint2_radial)"/>
<path d="M24 20.5C13.2304 20.5 5.01316 29.95 4.5 41.5H43.5C42.9868 29.95 34.7696 20.5 24 20.5Z" fill="url(#paint3_linear)"/>
<path d="M4.50516 41.5C4.74643 29.8132 13.4246 20.5 24 20.5C34.5754 20.5 43.2536 29.8132 43.4948 41.5H4.50516Z" stroke="black" stroke-opacity="0.5"/>
<path d="M42.4709 40.5H5.52908C6.24438 29.9537 13.9908 21.5 24 21.5C34.0092 21.5 41.7556 29.9537 42.4709 40.5Z" stroke="url(#paint4_linear)" stroke-opacity="0.5"/>
<path d="M22 21H25V24.5C25 25.3284 24.3284 26 23.5 26V26C22.6716 26 22 25.3284 22 24.5V21Z" fill="black" fill-opacity="0.1"/>
<path d="M23 21H24V24.5C24 24.7761 23.7761 25 23.5 25V25C23.2239 25 23 24.7761 23 24.5V21Z" fill="white"/>
<path d="M37.45 27.15L39.3229 29.4936L36.5148 31.5827C35.8502 32.0772 34.8921 31.9535 34.3749 31.3063V31.3063C33.8577 30.6591 33.9773 29.7337 34.6419 29.2392L37.45 27.15Z" fill="black" fill-opacity="0.1"/>
<path d="M38.03 27.9L38.6543 28.6812L35.8462 30.7704C35.6247 30.9352 35.3053 30.8939 35.1329 30.6782V30.6782C34.9605 30.4625 35.0004 30.154 35.2219 29.9892L38.03 27.9Z" fill="white"/>
<path d="M30.8484 22.426L33.5163 23.7978L32.8008 25.1162C32.4056 25.8443 31.488 26.1274 30.7513 25.7486V25.7486C30.0146 25.3698 29.7377 24.4725 30.1328 23.7444L30.8484 22.426Z" fill="black" fill-opacity="0.1"/>
<path d="M31.7264 22.8852L32.6158 23.3425L31.9002 24.6609C31.7685 24.9036 31.4627 24.9979 31.2171 24.8717V24.8717C30.9715 24.7454 30.8792 24.4463 31.0109 24.2036L31.7264 22.8852Z" fill="white"/>
<path d="M41.6814 34.2043L42.5306 37.0816L41.087 37.489C40.2897 37.714 39.4533 37.2523 39.2188 36.4578V36.4578C38.9843 35.6632 39.4405 34.8367 40.2378 34.6117L41.6814 34.2043Z" fill="black" fill-opacity="0.1"/>
<path d="M41.9089 35.1399L42.1919 36.099L40.7483 36.5063C40.4826 36.5813 40.2038 36.4274 40.1256 36.1626V36.1626C40.0474 35.8977 40.1995 35.6222 40.4653 35.5472L41.9089 35.1399Z" fill="white"/>
<path d="M10.4493 27.15L8.57688 29.4936L11.3842 31.5827C12.0487 32.0772 13.0066 31.9535 13.5236 31.3063V31.3063C14.0407 30.6591 13.9211 29.7336 13.2566 29.2391L10.4493 27.15Z" fill="black" fill-opacity="0.1"/>
<path d="M9.86942 27.9L9.24528 28.6812L12.0526 30.7703C12.2742 30.9352 12.5934 30.8939 12.7658 30.6782V30.6782C12.9381 30.4625 12.8983 30.154 12.6768 29.9891L9.86942 27.9Z" fill="white"/>
<path d="M17.0493 22.426L14.382 23.7978L15.0974 25.1164C15.4924 25.8444 16.4098 26.1274 17.1463 25.7486V25.7486C17.8829 25.3698 18.1598 24.4725 17.7647 23.7446L17.0493 22.426Z" fill="black" fill-opacity="0.1"/>
<path d="M16.1714 22.8852L15.2823 23.3425L15.9977 24.6609C16.1294 24.9036 16.4351 24.9979 16.6807 24.8717V24.8717C16.9262 24.7454 17.0185 24.4463 16.8868 24.2036L16.1714 22.8852Z" fill="white"/>
<path d="M6.21899 34.2043L5.37 37.0816L6.81295 37.4889C7.61021 37.714 8.44657 37.2523 8.68101 36.4578V36.4578C8.91545 35.6632 8.4592 34.8367 7.66194 34.6116L6.21899 34.2043Z" fill="black" fill-opacity="0.1"/>
<path d="M5.99158 35.1399L5.70858 36.099L7.15173 36.5063C7.41749 36.5813 7.69627 36.4274 7.77442 36.1626V36.1626C7.85257 35.8977 7.70048 35.6222 7.43473 35.5472L5.99158 35.1399Z" fill="white"/>
<circle cx="23.5" cy="40.5" r="3.5" stroke="black" stroke-opacity="0.07" stroke-width="2"/>
<circle cx="23.5" cy="40.5" r="3" stroke="black" stroke-opacity="0.15"/>
<path d="M25.6516 40.4133L26.0324 40.8461L26.407 40.4079L27.3636 39.289L29.2768 37.0511L33.1031 32.5753L32.4491 31.8321L27.5227 35.0574L25.0594 36.6701L23.8278 37.4765L23.3455 37.7923L23.7263 38.2251L25.6516 40.4133Z" stroke="black" stroke-opacity="0.15" stroke-miterlimit="5.01585"/>
<path d="M25.7545 40.1841L26.5161 41.0497L27.2653 40.1733L27.7436 39.6139L29.6568 37.376L33.4831 32.9002L32.1753 31.4138L27.2488 34.6391L24.7855 36.2518L24.1697 36.655L23.2051 37.2865L23.9667 38.1522L25.7545 40.1841Z" stroke="black" stroke-opacity="0.07" stroke-width="2" stroke-miterlimit="5.01585"/>
<path d="M25.0703 41.2019L22.87 38.7011L32.723 32.2504L25.0703 41.2019Z" fill="url(#paint5_linear)"/>
<path d="M25.0649 40.4388L23.6262 38.8037L30.0686 34.5858L25.0649 40.4388Z" stroke="url(#paint6_linear)" stroke-miterlimit="16"/>
<circle cx="23.5" cy="40.5" r="2.5" fill="url(#paint7_linear)"/>
<circle cx="23.5" cy="40.5" r="2" stroke="url(#paint8_linear)"/>
<defs>
<linearGradient id="paint0_linear" x1="24" y1="38" x2="24" y2="44" gradientUnits="userSpaceOnUse">
<stop stop-opacity="0"/>
<stop offset="0.491713" stop-opacity="0.6"/>
<stop offset="1" stop-opacity="0"/>
</linearGradient>
<radialGradient id="paint1_radial" cx="0" cy="0" r="1" gradientUnits="userSpaceOnUse" gradientTransform="translate(8 41) rotate(-180) scale(6 3)">
<stop stop-opacity="0.6"/>
<stop offset="1" stop-opacity="0"/>
</radialGradient>
<radialGradient id="paint2_radial" cx="0" cy="0" r="1" gradientUnits="userSpaceOnUse" gradientTransform="translate(6 3) rotate(-180) scale(6 3)">
<stop stop-opacity="0.6"/>
<stop offset="1" stop-opacity="0"/>
</radialGradient>
<linearGradient id="paint3_linear" x1="24" y1="20.5" x2="24" y2="41.5" gradientUnits="userSpaceOnUse">
<stop stop-color="#667885"/>
<stop offset="1" stop-color="#485A6C"/>
</linearGradient>
<linearGradient id="paint4_linear" x1="24" y1="21" x2="24" y2="41" gradientUnits="userSpaceOnUse">
<stop stop-color="white" stop-opacity="0.26"/>
<stop offset="1" stop-color="white" stop-opacity="0.17"/>
</linearGradient>
<linearGradient id="paint5_linear" x1="32.723" y1="32.2504" x2="25.5327" y2="38.3308" gradientUnits="userSpaceOnUse">
<stop stop-color="#F37329"/>
<stop offset="1" stop-color="#CC3B02"/>
</linearGradient>
<linearGradient id="paint6_linear" x1="32.723" y1="32.2504" x2="23.9702" y2="39.9515" gradientUnits="userSpaceOnUse">
<stop stop-color="white" stop-opacity="0.48"/>
<stop offset="1" stop-color="white" stop-opacity="0.03"/>
</linearGradient>
<linearGradient id="paint7_linear" x1="23.5" y1="38" x2="23.5" y2="48.625" gradientUnits="userSpaceOnUse">
<stop stop-color="#A10705"/>
<stop offset="1" stop-color="#7A0000"/>
</linearGradient>
<linearGradient id="paint8_linear" x1="23.5" y1="38" x2="23.5" y2="43" gradientUnits="userSpaceOnUse">
<stop stop-color="white" stop-opacity="0.41"/>
<stop offset="1" stop-color="white" stop-opacity="0.19"/>
</linearGradient>
</defs>
</svg>
